<?xml version='1.0' encoding='UTF-8'?>
<svg width="37mm" height="37mm" version="1.1" viewBox="0 0 37 37" fill_color="#000E6F" xmlns="http://www.w3.org/2000/svg"><path d="M2,2H3V3H2zM3,2H4V3H3zM4,2H5V3H4zM5,2H6V3H5zM6,2H7V3H6zM7,2H8V3H7zM8,2H9V3H8zM13,2H14V3H13zM14,2H15V3H14zM16,2H17V3H16zM18,2H19V3H18zM19,2H20V3H19zM20,2H21V3H20zM21,2H22V3H21zM22,2H23V3H22zM23,2H24V3H23zM24,2H25V3H24zM26,2H27V3H26zM28,2H29V3H28zM29,2H30V3H29zM30,2H31V3H30zM31,2H32V3H31zM32,2H33V3H32zM33,2H34V3H33zM34,2H35V3H34zM2,3H3V4H2zM8,3H9V4H8zM11,3H12V4H11zM13,3H14V4H13zM14,3H15V4H14zM15,3H16V4H15zM20,3H21V4H20zM22,3H23V4H22zM24,3H25V4H24zM26,3H27V4H26zM28,3H29V4H28zM34,3H35V4H34zM2,4H3V5H2zM4,4H5V5H4zM5,4H6V5H5zM6,4H7V5H6zM8,4H9V5H8zM10,4H11V5H10zM11,4H12V5H11zM12,4H13V5H12zM13,4H14V5H13zM15,4H16V5H15zM16,4H17V5H16zM17,4H18V5H17zM18,4H19V5H18zM19,4H20V5H19zM21,4H22V5H21zM22,4H23V5H22zM23,4H24V5H23zM25,4H26V5H25zM26,4H27V5H26zM28,4H29V5H28zM30,4H31V5H30zM31,4H32V5H31zM32,4H33V5H32zM34,4H35V5H34zM2,5H3V6H2zM4,5H5V6H4zM5,5H6V6H5zM6,5H7V6H6zM8,5H9V6H8zM10,5H11V6H10zM15,5H16V6H15zM16,5H17V6H16zM17,5H18V6H17zM19,5H20V6H19zM21,5H22V6H21zM23,5H24V6H23zM25,5H26V6H25zM28,5H29V6H28zM30,5H31V6H30zM31,5H32V6H31zM32,5H33V6H32zM34,5H35V6H34zM2,6H3V7H2zM4,6H5V7H4zM5,6H6V7H5zM6,6H7V7H6zM8,6H9V7H8zM12,6H13V7H12zM13,6H14V7H13zM15,6H16V7H15zM18,6H19V7H18zM19,6H20V7H19zM25,6H26V7H25zM26,6H27V7H26zM28,6H29V7H28zM30,6H31V7H30zM31,6H32V7H31zM32,6H33V7H32zM34,6H35V7H34zM2,7H3V8H2zM8,7H9V8H8zM12,7H13V8H12zM13,7H14V8H13zM14,7H15V8H14zM15,7H16V8H15zM16,7H17V8H16zM21,7H22V8H21zM22,7H23V8H22zM23,7H24V8H23zM25,7H26V8H25zM28,7H29V8H28zM34,7H35V8H34zM2,8H3V9H2zM3,8H4V9H3zM4,8H5V9H4zM5,8H6V9H5zM6,8H7V9H6zM7,8H8V9H7zM8,8H9V9H8zM10,8H11V9H10zM12,8H13V9H12zM14,8H15V9H14zM16,8H17V9H16zM18,8H19V9H18zM20,8H21V9H20zM22,8H23V9H22zM24,8H25V9H24zM26,8H27V9H26zM28,8H29V9H28zM29,8H30V9H29zM30,8H31V9H30zM31,8H32V9H31zM32,8H33V9H32zM33,8H34V9H33zM34,8H35V9H34zM11,9H12V10H11zM13,9H14V10H13zM14,9H15V10H14zM15,9H16V10H15zM18,9H19V10H18zM19,9H20V10H19zM20,9H21V10H20zM21,9H22V10H21zM26,9H27V10H26zM5,10H6V11H5zM6,10H7V11H6zM8,10H9V11H8zM9,10H10V11H9zM15,10H16V11H15zM16,10H17V11H16zM18,10H19V11H18zM19,10H20V11H19zM20,10H21V11H20zM21,10H22V11H21zM22,10H23V11H22zM26,10H27V11H26zM31,10H32V11H31zM32,10H33V11H32zM5,11H6V12H5zM6,11H7V12H6zM7,11H8V12H7zM10,11H11V12H10zM11,11H12V12H11zM13,11H14V12H13zM15,11H16V12H15zM17,11H18V12H17zM18,11H19V12H18zM19,11H20V12H19zM20,11H21V12H20zM21,11H22V12H21zM23,11H24V12H23zM24,11H25V12H24zM25,11H26V12H25zM27,11H28V12H27zM29,11H30V12H29zM30,11H31V12H30zM32,11H33V12H32zM33,11H34V12H33zM2,12H3V13H2zM3,12H4V13H3zM4,12H5V13H4zM8,12H9V13H8zM9,12H10V13H9zM10,12H11V13H10zM14,12H15V13H14zM15,12H16V13H15zM17,12H18V13H17zM18,12H19V13H18zM19,12H20V13H19zM20,12H21V13H20zM21,12H22V13H21zM24,12H25V13H24zM25,12H26V13H25zM27,12H28V13H27zM28,12H29V13H28zM29,12H30V13H29zM32,12H33V13H32zM33,12H34V13H33zM34,12H35V13H34zM5,13H6V14H5zM6,13H7V14H6zM9,13H10V14H9zM11,13H12V14H11zM15,13H16V14H15zM18,13H19V14H18zM20,13H21V14H20zM23,13H24V14H23zM24,13H25V14H24zM25,13H26V14H25zM27,13H28V14H27zM29,13H30V14H29zM30,13H31V14H30zM32,13H33V14H32zM34,13H35V14H34zM2,14H3V15H2zM4,14H5V15H4zM5,14H6V15H5zM6,14H7V15H6zM8,14H9V15H8zM9,14H10V15H9zM11,14H12V15H11zM13,14H14V15H13zM14,14H15V15H14zM16,14H17V15H16zM18,14H19V15H18zM22,14H23V15H22zM23,14H24V15H23zM25,14H26V15H25zM26,14H27V15H26zM28,14H29V15H28zM29,14H30V15H29zM30,14H31V15H30zM31,14H32V15H31zM34,14H35V15H34zM5,15H6V16H5zM6,15H7V16H6zM7,15H8V16H7zM9,15H10V16H9zM11,15H12V16H11zM13,15H14V16H13zM14,15H15V16H14zM20,15H21V16H20zM22,15H23V16H22zM23,15H24V16H23zM25,15H26V16H25zM27,15H28V16H27zM29,15H30V16H29zM30,15H31V16H30zM31,15H32V16H31zM33,15H34V16H33zM2,16H3V17H2zM6,16H7V17H6zM7,16H8V17H7zM8,16H9V17H8zM10,16H11V17H10zM11,16H12V17H11zM13,16H14V17H13zM15,16H16V17H15zM17,16H18V17H17zM21,16H22V17H21zM22,16H23V17H22zM26,16H27V17H26zM29,16H30V17H29zM3,17H4V18H3zM7,17H8V18H7zM9,17H10V18H9zM11,17H12V18H11zM14,17H15V18H14zM16,17H17V18H16zM17,17H18V18H17zM18,17H19V18H18zM22,17H23V18H22zM28,17H29V18H28zM29,17H30V18H29zM31,17H32V18H31zM32,17H33V18H32zM34,17H35V18H34zM2,18H3V19H2zM3,18H4V19H3zM5,18H6V19H5zM6,18H7V19H6zM8,18H9V19H8zM9,18H10V19H9zM10,18H11V19H10zM11,18H12V19H11zM22,18H23V19H22zM25,18H26V19H25zM27,18H28V19H27zM28,18H29V19H28zM30,18H31V19H30zM31,18H32V19H31zM33,18H34V19H33zM2,19H3V20H2zM4,19H5V20H4zM5,19H6V20H5zM6,19H7V20H6zM7,19H8V20H7zM9,19H10V20H9zM12,19H13V20H12zM14,19H15V20H14zM15,19H16V20H15zM17,19H18V20H17zM18,19H19V20H18zM21,19H22V20H21zM22,19H23V20H22zM23,19H24V20H23zM24,19H25V20H24zM26,19H27V20H26zM28,19H29V20H28zM29,19H30V20H29zM30,19H31V20H30zM31,19H32V20H31zM34,19H35V20H34zM3,20H4V21H3zM5,20H6V21H5zM6,20H7V21H6zM7,20H8V21H7zM8,20H9V21H8zM9,20H10V21H9zM11,20H12V21H11zM13,20H14V21H13zM15,20H16V21H15zM18,20H19V21H18zM25,20H26V21H25zM27,20H28V21H27zM28,20H29V21H28zM30,20H31V21H30zM31,20H32V21H31zM32,20H33V21H32zM34,20H35V21H34zM6,21H7V22H6zM11,21H12V22H11zM13,21H14V22H13zM14,21H15V22H14zM17,21H18V22H17zM19,21H20V22H19zM20,21H21V22H20zM21,21H22V22H21zM22,21H23V22H22zM25,21H26V22H25zM26,21H27V22H26zM28,21H29V22H28zM31,21H32V22H31zM32,21H33V22H32zM33,21H34V22H33zM2,22H3V23H2zM3,22H4V23H3zM5,22H6V23H5zM6,22H7V23H6zM7,22H8V23H7zM8,22H9V23H8zM10,22H11V23H10zM11,22H12V23H11zM12,22H13V23H12zM13,22H14V23H13zM14,22H15V23H14zM16,22H17V23H16zM18,22H19V23H18zM19,22H20V23H19zM20,22H21V23H20zM26,22H27V23H26zM27,22H28V23H27zM29,22H30V23H29zM31,22H32V23H31zM34,22H35V23H34zM2,23H3V24H2zM5,23H6V24H5zM7,23H8V24H7zM9,23H10V24H9zM10,23H11V24H10zM11,23H12V24H11zM13,23H14V24H13zM16,23H17V24H16zM18,23H19V24H18zM19,23H20V24H19zM27,23H28V24H27zM28,23H29V24H28zM29,23H30V24H29zM30,23H31V24H30zM32,23H33V24H32zM2,24H3V25H2zM4,24H5V25H4zM7,24H8V25H7zM8,24H9V25H8zM11,24H12V25H11zM14,24H15V25H14zM15,24H16V25H15zM17,24H18V25H17zM18,24H19V25H18zM22,24H23V25H22zM23,24H24V25H23zM26,24H27V25H26zM28,24H29V25H28zM31,24H32V25H31zM33,24H34V25H33zM34,24H35V25H34zM2,25H3V26H2zM4,25H5V26H4zM5,25H6V26H5zM6,25H7V26H6zM7,25H8V26H7zM10,25H11V26H10zM13,25H14V26H13zM17,25H18V26H17zM19,25H20V26H19zM20,25H21V26H20zM32,25H33V26H32zM34,25H35V26H34zM2,26H3V27H2zM3,26H4V27H3zM5,26H6V27H5zM6,26H7V27H6zM7,26H8V27H7zM8,26H9V27H8zM10,26H11V27H10zM11,26H12V27H11zM12,26H13V27H12zM14,26H15V27H14zM15,26H16V27H15zM16,26H17V27H16zM18,26H19V27H18zM20,26H21V27H20zM24,26H25V27H24zM26,26H27V27H26zM27,26H28V27H27zM28,26H29V27H28zM29,26H30V27H29zM30,26H31V27H30zM31,26H32V27H31zM34,26H35V27H34zM10,27H11V28H10zM11,27H12V28H11zM17,27H18V28H17zM19,27H20V28H19zM22,27H23V28H22zM26,27H27V28H26zM30,27H31V28H30zM31,27H32V28H31zM2,28H3V29H2zM3,28H4V29H3zM4,28H5V29H4zM5,28H6V29H5zM6,28H7V29H6zM7,28H8V29H7zM8,28H9V29H8zM10,28H11V29H10zM13,28H14V29H13zM15,28H16V29H15zM19,28H20V29H19zM22,28H23V29H22zM23,28H24V29H23zM24,28H25V29H24zM25,28H26V29H25zM26,28H27V29H26zM28,28H29V29H28zM30,28H31V29H30zM2,29H3V30H2zM8,29H9V30H8zM11,29H12V30H11zM12,29H13V30H12zM15,29H16V30H15zM16,29H17V30H16zM19,29H20V30H19zM20,29H21V30H20zM25,29H26V30H25zM26,29H27V30H26zM30,29H31V30H30zM31,29H32V30H31zM32,29H33V30H32zM33,29H34V30H33zM2,30H3V31H2zM4,30H5V31H4zM5,30H6V31H5zM6,30H7V31H6zM8,30H9V31H8zM10,30H11V31H10zM12,30H13V31H12zM13,30H14V31H13zM15,30H16V31H15zM17,30H18V31H17zM18,30H19V31H18zM23,30H24V31H23zM25,30H26V31H25zM26,30H27V31H26zM27,30H28V31H27zM28,30H29V31H28zM29,30H30V31H29zM30,30H31V31H30zM31,30H32V31H31zM33,30H34V31H33zM2,31H3V32H2zM4,31H5V32H4zM5,31H6V32H5zM6,31H7V32H6zM8,31H9V32H8zM10,31H11V32H10zM12,31H13V32H12zM14,31H15V32H14zM15,31H16V32H15zM16,31H17V32H16zM19,31H20V32H19zM20,31H21V32H20zM23,31H24V32H23zM25,31H26V32H25zM26,31H27V32H26zM27,31H28V32H27zM29,31H30V32H29zM33,31H34V32H33zM2,32H3V33H2zM4,32H5V33H4zM5,32H6V33H5zM6,32H7V33H6zM8,32H9V33H8zM11,32H12V33H11zM13,32H14V33H13zM14,32H15V33H14zM15,32H16V33H15zM16,32H17V33H16zM17,32H18V33H17zM19,32H20V33H19zM21,32H22V33H21zM22,32H23V33H22zM24,32H25V33H24zM25,32H26V33H25zM30,32H31V33H30zM31,32H32V33H31zM32,32H33V33H32zM33,32H34V33H33zM34,32H35V33H34zM2,33H3V34H2zM8,33H9V34H8zM11,33H12V34H11zM12,33H13V34H12zM20,33H21V34H20zM22,33H23V34H22zM24,33H25V34H24zM32,33H33V34H32zM33,33H34V34H33zM34,33H35V34H34zM2,34H3V35H2zM3,34H4V35H3zM4,34H5V35H4zM5,34H6V35H5zM6,34H7V35H6zM7,34H8V35H7zM8,34H9V35H8zM11,34H12V35H11zM14,34H15V35H14zM16,34H17V35H16zM18,34H19V35H18zM20,34H21V35H20zM21,34H22V35H21zM25,34H26V35H25zM26,34H27V35H26zM27,34H28V35H27zM28,34H29V35H28zM30,34H31V35H30zM32,34H33V35H32z" id="qr-path" fill="#000000" fill-opacity="1" fill-rule="nonzero" stroke="none"/></svg>