<?xml version="1.0" encoding="utf-8"?>
<!-- Generator: Adobe Illustrator 26.0.2, SVG Export Plug-In . SVG Version: 6.00 Build 0)  -->
<svg version="1.1" id="Laag_1" xmlns="http://www.w3.org/2000/svg" xmlns:xlink="http://www.w3.org/1999/xlink" x="0px" y="0px"
	 viewBox="0 0 689.3 257.6" style="enable-background:new 0 0 689.3 257.6;" xml:space="preserve">
<style type="text/css">
	.st0{fill:#FFFFFF;}
</style>
<polygon class="st0" points="320.9,97.1 320.9,90.2 324.7,90.2 324.7,107.8 320.9,107.8 320.9,100.9 313.5,100.9 313.5,107.8 
	309.7,107.8 309.7,90.2 313.5,90.2 313.5,97.1 "/>
<g>
	<path class="st0" d="M345.8,95.5c-1-1-3.1-1.8-4.6-1.8c-3.4,0-6.1,2.4-6.1,5.4c0,3,2.7,5.4,6.1,5.4c1.6,0,3.5-0.7,4.6-1.9l2,2.4
		c-1.7,2-4.3,3.3-7.2,3.3c-5.2,0-9.5-4.1-9.5-9.2c0-5,4.3-9.2,9.5-9.2c2.9,0,5.6,1.2,7.2,3.2L345.8,95.5z"/>
	<path class="st0" d="M440.5,130.7c-8.6,0-16.8-6.2-16.8-17.1V97.7h-9.4v-3l20.6-21.5h3v14.8h15.7v9.8H438V112c0,6.8,3.4,9.1,8,9.1
		c2,0,6.4-1.6,7.7-2.9v8.3C451.1,129.1,444.3,130.7,440.5,130.7"/>
	<path class="st0" d="M482,67.4v22.2c2.6-1.5,5.9-2.6,9.2-2.6c12.5,0,17.5,7.6,17.5,15.8v26.9h-14.3v-21.2v-1.8
		c0-6.6-1.6-8.8-5.1-8.8c-3.5,0-5.7,1.8-7.3,4.7v5.3v21.8h-14.3V67.4H482z"/>
	<path class="st0" d="M550.4,102.4c0-3.7-2.5-6.4-6.8-6.4c-2.9,0-6.2,2.3-7.7,6.4H550.4z M547.6,120.5c4.3,0,7.4-1.4,10-3.5l5.4,6.2
		c-3.9,4.3-10.8,7.5-18.2,7.5c-15.2,0-24.1-9.7-24.1-21.7c0-12.1,9.3-22,23.1-22c13,0,22.9,11,20.7,23.7h-29
		C534.9,116.4,539.7,120.5,547.6,120.5"/>
	<path class="st0" d="M599.8,87c12.5,0,17.5,7.6,17.5,15.8v26.9H603v-21.2v-1.8c0-6.6-1.6-8.8-5.1-8.8c-3.5,0-5.7,1.8-7.3,4.7v5.3
		v21.8h-14.3V87.9h3l6.4,5.5C588.4,90.4,593.9,87,599.8,87"/>
	<path class="st0" d="M386.2,109.2c-0.1,6.2-3.3,11.1-7,11.1c-3.8,0-7-5.1-7-11.5s3.2-11.5,7-11.5c3.8,0,6.9,4.9,7,11.1V109.2z
		 M397.7,109c0-5.6,3.8-10.3,8.8-11.6V86.9h-3.1c-5.6,0-9.7,2.8-12.5,5.7c-3.6-3.6-8.3-5.6-13.5-5.6c-11.1,0-20.1,9.7-20.1,21.8
		c0,12.1,9,21.8,20.1,21.8c4.9,0,9.3-1.9,12.8-4.9c2.8,2.7,7.2,5.5,13.3,5.5h3.1v-10.5C401.5,119.3,397.7,114.6,397.7,109"/>
	<path class="st0" d="M655.8,109.2c-0.1,6.2-3.3,11.1-7,11.1c-3.8,0-7-5.1-7-11.5s3.2-11.5,7-11.5c3.8,0,6.9,4.9,7,11.1V109.2z
		 M667.3,109c0-5.6,3.8-10.3,8.8-11.6V86.9H673c-5.6,0-9.7,2.8-12.5,5.7c-3.6-3.6-8.3-5.6-13.5-5.6c-11.1,0-20.1,9.7-20.1,21.8
		c0,12.1,9,21.8,20.1,21.8c4.9,0,9.3-1.9,12.8-4.9c2.8,2.7,7.2,5.5,13.2,5.5h3.1v-10.5C671,119.3,667.3,114.6,667.3,109"/>
</g>
<polygon class="st0" points="429.7,183.1 423.4,183.1 423.4,165.5 414,174.9 404.5,165.5 404.5,183.1 398.2,183.1 398.2,153.6 
	401.5,153.6 414,166 426.4,153.6 429.7,153.6 "/>
<g>
	<path class="st0" d="M450.9,183.8c-4.2,0-8.6-1.1-12.3-3.5l0.9-5.2c4,1.9,7.8,2.9,10.9,2.9c2.7,0,5.6-0.7,5.6-3.2
		c0-4.7-17.9-2.9-17.9-13c0-4.9,5-9,11.5-9c4.4,0,8.6,1.2,12.8,3.9l-2.2,4.7c-2.9-1.5-6.7-2.8-9.6-2.8c-3.5,0-5.2,1.1-5.2,2.9
		c0,4.4,17.8,3.3,17.8,12.6C463.2,180.3,457.3,183.8,450.9,183.8"/>
</g>
<polygon class="st0" points="468.6,159.9 468.6,153.6 496.3,153.6 496.3,159.9 485.6,159.9 485.6,183.1 479.3,183.1 479.3,159.9 "/>
<polygon class="st0" points="504.9,153.6 523.8,153.6 523.8,159.9 511.2,159.9 511.2,165.2 523.8,165.2 523.8,171.5 511.2,171.5 
	511.2,176.9 523.8,176.9 523.8,183.1 504.9,183.1 "/>
<g>
	<path class="st0" d="M552.9,164.9c0-2.8-2.3-5-5-5h-8.2v10.1h8.2C550.6,169.9,552.9,167.7,552.9,164.9 M561.5,183.1h-8.8l-6.9-6.9
		h-6.2v6.9h-6.3v-29.6h14.5c6.2,0,11.3,5.1,11.3,11.3c0,4.2-2.4,8-6,9.9L561.5,183.1z"/>
	<path class="st0" d="M588.8,168.4c0-4.7-3.8-8.5-8.5-8.5h-4.8v17h4.8C585,176.9,588.8,173,588.8,168.4 M595.1,168.4
		c0,8.1-6.7,14.8-14.8,14.8c-0.8-0.3-11,0-11,0v-29.6h11C588.4,153.6,595.1,160.2,595.1,168.4"/>
	<path class="st0" d="M621.1,165.5c0-3.5-2.8-6.3-6.3-6.3c-3.5,0-6.3,2.8-6.3,6.3v4.4h12.6V165.5z M608.5,183.1h-6.3v-17.6
		c0-6.9,5.7-12.6,12.6-12.6c7,0,12.6,5.7,12.6,12.6v17.6h-6.3v-6.9h-12.6V183.1z"/>
	<path class="st0" d="M383.3,165.5c0-3.5-2.8-6.3-6.3-6.3c-3.5,0-6.3,2.8-6.3,6.3v4.4h12.6V165.5z M370.8,183.1h-6.3v-17.6
		c0-6.9,5.7-12.6,12.6-12.6c7,0,12.6,5.7,12.6,12.6v17.6h-6.4v-6.9h-12.6V183.1z"/>
</g>
<polygon class="st0" points="667.5,183.1 661.2,183.1 661.2,165.5 651.8,174.9 642.3,165.5 642.3,183.1 636,183.1 636,153.6 
	639.3,153.6 651.8,166 664.2,153.6 667.5,153.6 "/>
<g>
	<path class="st0" d="M240.6,172.3l-98.9,4.2c-7.4,3.8-15.7,5.9-24.5,5.9c-29.8,0-54.1-24.3-54.1-54.1c0-29.8,24.3-54.1,54.1-54.1
		c8.8,0,17,2.1,24.4,5.9L242.4,84C250.2,76,260,70.2,271,67.3V11.1h-16.4C225,11.1,203,25.9,188,41.7
		c-19.2-18.9-44.2-29.9-72.1-29.9C56.6,11.8,8.7,63.5,8.7,128c0,64.5,47.9,116.2,107.2,116.2c26,0,49.5-9.9,68.1-26.3
		c15,14.4,38.2,29.1,70.6,29.1H271v-56.1C259.2,187.7,248.7,181.2,240.6,172.3"/>
	<path class="st0" d="M166.8,149.9l61.6,2.4c-1.7-4.4-2.9-9-3.6-13.8l-54.9,2.3C169.1,144,168.1,147,166.8,149.9"/>
	<path class="st0" d="M155.3,166.7l83.3,3.2c-3.6-4.4-6.6-9.2-9-14.4l-67.5,2.9C160.2,161.4,157.9,164.1,155.3,166.7"/>
	<path class="st0" d="M162.1,98.1l68.5,2.7c2.6-5.3,5.9-10.2,9.7-14.5l-85.1,3.6C157.8,92.3,160.1,95.1,162.1,98.1"/>
	<path class="st0" d="M171.1,123.5c0.1,1.6,0.2,3.1,0.2,4.7c0,1.5-0.1,3.1-0.2,4.6l53.2,2.1c-0.2-1.9-0.3-3.9-0.3-5.9
		c0-2.6,0.2-5.2,0.5-7.8L171.1,123.5z"/>
	<path class="st0" d="M169.8,115.6l55.3,2.1c0.8-4.8,2.2-9.5,4.1-13.9l-62.4,2.6C168,109.4,169,112.4,169.8,115.6"/>
</g>
</svg>
